<?xml version="1.0" standalone="no"?>
<!DOCTYPE svg PUBLIC "-//W3C//DTD SVG 20010904//EN"
 "http://www.w3.org/TR/2001/REC-SVG-20010904/DTD/svg10.dtd">
<svg version="1.0" xmlns="http://www.w3.org/2000/svg"
 width="512.000000pt" height="512.000000pt" viewBox="0 0 512.000000 512.000000"
 preserveAspectRatio="xMidYMid meet">

<g transform="translate(0.000000,512.000000) scale(0.100000,-0.100000)"
fill="#000000" stroke="none">
<path d="M584 4461 c-17 -11 -36 -34 -43 -52 -8 -22 -11 -223 -11 -676 0 -692
0 -691 51 -727 21 -14 109 -16 946 -16 l923 0 0 -110 0 -110 -923 0 c-1024 0
-954 5 -983 -66 -21 -50 -21 -1309 0 -1359 29 -69 -25 -65 991 -65 l915 0 0
-55 0 -55 -65 0 c-112 0 -145 -32 -145 -144 l0 -66 -810 0 c-901 0 -857 3
-886 -67 -19 -43 -5 -93 33 -123 25 -20 39 -20 844 -20 l819 0 0 -65 c0 -80
19 -121 65 -141 49 -20 461 -20 510 0 46 20 65 61 65 141 l0 65 819 0 c805 0
819 0 844 20 38 30 52 80 33 123 -29 70 15 67 -886 67 l-810 0 0 66 c0 112
-33 144 -145 144 l-65 0 0 55 0 55 915 0 c1016 0 962 -4 991 65 21 50 21 1309
0 1359 -29 71 41 66 -983 66 l-923 0 0 110 0 110 923 0 c1024 0 954 -5 983 66
21 50 21 1309 0 1359 -30 70 137 65 -2018 65 -1892 0 -1944 -1 -1974 -19z
m3786 -726 l0 -535 -1810 0 -1810 0 0 535 0 535 1810 0 1810 0 0 -535z m0
-1710 l0 -535 -1810 0 -1810 0 0 535 0 535 1810 0 1810 0 0 -535z m-1700
-1170 l0 -105 -110 0 -110 0 0 105 0 105 110 0 110 0 0 -105z"/>
<path d="M1032 4089 c-20 -6 -41 -22 -53 -42 -18 -30 -19 -48 -17 -324 l3
-293 28 -27 c22 -22 37 -28 73 -28 39 0 50 5 75 33 l29 32 0 293 c0 325 0 326
-66 353 -18 8 -35 14 -36 13 -2 0 -18 -5 -36 -10z"/>
<path d="M1454 4085 c-64 -27 -64 -29 -64 -353 l0 -294 35 -35 c32 -32 40 -35
77 -30 26 3 51 15 67 31 l26 26 3 290 c2 246 1 294 -13 319 -25 49 -80 68
-131 46z"/>
<path d="M1894 4093 c-12 -2 -34 -18 -50 -34 l-29 -30 -3 -272 c-2 -180 0
-285 8 -310 12 -42 58 -77 100 -77 42 0 88 35 100 77 8 25 10 130 8 310 l-3
273 -30 29 c-31 29 -64 41 -101 34z"/>
<path d="M3739 4037 c-84 -31 -157 -96 -185 -164 l-14 -33 -181 0 c-204 0
-230 -7 -255 -67 -19 -43 -5 -93 33 -123 24 -18 40 -20 212 -20 l186 0 24 -46
c98 -184 351 -225 499 -81 24 23 56 65 70 92 23 43 27 62 27 135 0 73 -4 93
-28 142 -31 62 -84 116 -149 149 -54 28 -184 36 -239 16z m152 -213 c93 -48
55 -194 -50 -194 -104 0 -146 137 -57 191 38 23 67 24 107 3z"/>
<path d="M1025 2381 c-11 -5 -29 -19 -40 -31 -19 -21 -20 -38 -23 -314 -2
-275 -1 -293 17 -323 26 -41 80 -58 126 -39 65 27 65 29 65 354 l0 294 -34 34
c-35 35 -68 42 -111 25z"/>
<path d="M1425 2357 l-35 -35 0 -294 c0 -325 0 -327 65 -354 46 -19 100 -2
126 39 18 30 19 48 17 324 l-3 293 -26 26 c-16 16 -41 28 -67 31 -37 5 -45 2
-77 -30z"/>
<path d="M1863 2370 c-50 -30 -55 -62 -51 -367 l3 -273 32 -31 c44 -45 102
-45 146 0 l32 31 3 273 c2 180 0 285 -8 310 -12 42 -58 77 -100 77 -14 0 -39
-9 -57 -20z"/>
<path d="M3761 2335 c-30 -9 -69 -24 -87 -35 -42 -26 -100 -92 -121 -135 l-17
-35 -187 0 c-172 0 -188 -2 -212 -20 -38 -30 -52 -80 -33 -123 25 -60 51 -67
255 -67 l179 0 22 -44 c24 -51 80 -105 142 -138 36 -19 58 -23 138 -23 80 0
102 4 138 23 66 35 119 88 149 150 24 49 28 69 28 142 0 73 -4 92 -27 135 -74
139 -225 209 -367 170z m142 -225 c38 -30 52 -80 33 -123 -15 -37 -59 -67 -96
-67 -37 0 -81 30 -96 67 -29 68 21 143 96 143 22 0 48 -8 63 -20z"/>
</g>
</svg>
